<svg xmlns="http://www.w3.org/2000/svg" viewBox="0 0 512 512"><path d="M256 0c53 0 96 43 96 96v3.6c0 15.7-12.7 28.4-28.4 28.4H188.4c-15.7 0-28.4-12.7-28.4-28.4V96c0-53 43-96 96-96zM41.4 105.4c12.5-12.5 32.8-12.5 45.3 0l64 64c.7 .7 1.3 1.4 1.9 2.1c14.2-7.3 30.4-11.4 47.5-11.4H312c17.1 0 33.2 4.1 47.5 11.4c.6-.7 1.2-1.4 1.9-2.1l64-64c12.5-12.5 32.8-12.5 45.3 0s12.5 32.8 0 45.3l-64 64c-.9 .9-1.9 1.7-2.8 2.6C436.3 231.3 456 265.3 456 304v16 192c0 17.7-14.3 32-32 32s-32-14.3-32-32V464H120v48c0 17.7-14.3 32-32 32s-32-14.3-32-32V320c0-38.7 19.7-72.7 51.5-89.4c-1-.9-1.9-1.7-2.8-2.6l-64-64c-12.5-12.5-12.5-32.8 0-45.3zM312 224H200c-17.7 0-32 14.3-32 32V416H344V256c0-17.7-14.3-32-32-32z"/></svg>