<svg xmlns="http://www.w3.org/2000/svg" viewBox="0 0 512 512"><path d="M495.9 166.6c3.2 8.7 .5 18.4-6.4 24.6l-43.3 39.4c1.1 8.3 1.7 16.8 1.7 25.4s-.6 17.1-1.7 25.4l43.3 39.4c6.9 6.2 9.6 15.9 6.4 24.6c-4.4 11.9-9.7 23.3-15.8 34.3l-4.7 8.1c-6.6 11-14 21.4-22.1 31.2c-5.9 8-15.7 10.8-23.8 6.8l-55.7-22.2c-7.6 6-15.9 11.3-24.6 15.8l-9.3 58.1c-1.5 9.2-8.5 16.6-17.8 17.6c-12.1 1.3-24.4 2-36.8 2s-24.7-.7-36.8-2c-9.3-1-16.3-8.4-17.8-17.6l-9.3-58.1c-8.7-4.5-17-9.8-24.6-15.8l-55.7 22.2c-8.1 4-17.9 1.2-23.8-6.8c-8.1-9.8-15.5-20.2-22.1-31.2l-4.7-8.1c-6.1-11-11.4-22.4-15.8-34.3c-3.2-8.7-.5-18.4 6.4-24.6l43.3-39.4C64.6 273.1 64 262.8 64 254.4s.6-17.1 1.7-25.4L22.4 189.6c-6.9-6.2-9.6-15.9-6.4-24.6c4.4-11.9 9.7-23.3 15.8-34.3l4.7-8.1c6.6-11 14-21.4 22.1-31.2c5.9-8 15.7-10.8 23.8-6.8l55.7 22.2c7.6-6 15.9-11.3 24.6-15.8l9.3-58.1c1.5-9.2 8.5-16.6 17.8-17.6C201.6 16.7 213.9 16 226.3 16s24.7 .7 36.8 2c9.3 1 16.3 8.4 17.8 17.6l9.3 58.1c8.7 4.5 17 9.8 24.6 15.8l55.7-22.2c8.1-4 17.9-1.2 23.8 6.8c8.1 9.8 15.5 20.2 22.1 31.2l4.7 8.1c6.1 11 11.4 22.4 15.8 34.3zM256 336a80 80 0 1 0 0-160 80 80 0 1 0 0 160z"/></svg>