<svg xmlns="http://www.w3.org/2000/svg" viewBox="0 0 512 512"><!--!Font Awesome Free 6.5.1 by @fontawesome - https://fontawesome.com License - https://fontawesome.com/license/free Copyright 2024 Fonticons, Inc.--><path d="M444.5 219.9L487 177.4c25-25 25-65.5 0-90.5L425.1 25c-25-25-65.5-25-90.5 0L292.1 67.5c-25 25-25 65.5 0 90.5l42.4 42.4c-25.9 18.9-54.1 35.6-84.6 48.6C137.9 296.7 65.1 312 0 312v96c0 17.7 14.3 32 32 32h64c17.7 0 32-14.3 32-32V384c0-17.7 14.3-32 32-32h64c17.7 0 32-14.3 32-32V296c72.3 0 138.7-13.9 196.1-38.6c28-12.1 53.8-27.4 76.4-45.4zM341.7 104.1L384.2 61.6l61.9 61.9L403.6 166l-61.9-61.9z"/></svg>