<svg xmlns="http://www.w3.org/2000/svg" viewBox="0 0 576 512"><!--!Font Awesome Free 6.5.1 by @fontawesome - https://fontawesome.com License - https://fontawesome.com/license/free Copyright 2024 Fonticons, Inc.--><path d="M384 476.1L192 421.2V35.9L384 90.8V476.1zm32-1.2V88.4l149.7-42.7c5.6-1.6 11.4 .9 14.3 6L576 57.6V424c0 10.7-6.8 20.2-17.1 23.1l-160 45.7c-5.4 1.5-11.1-1.2-13.6-6.2l-1.3-2.7zm-384-6.2L178.9 423c5.4-1.5 11.1 1.2 13.6 6.2l1.3 2.7L160 476.1V423.6l-128 36.5c-10.7 3.1-21.6-2.9-26.2-12.9L0 436.3V69.9c0-10.7 6.8-20.2 17.1-23.1L177.1 1.1c5.4-1.5 11.1 1.2 13.6 6.2l1.3 2.7L160 35.9V88.4L32 51.8V468.7zM160 88.4V35.9l-128 36.5V423.6l128-36.5V88.4zM416 423.6l128 36.5V93.3l-128-36.5V423.6z"/></svg>